<svg width="1000" height="1000" viewBox="0 0 1000 1000" fill="none" xmlns="http://www.w3.org/2000/svg">
<rect y="0.00012207" width="1000" height="1000" rx="250" fill="#7F30E3"/>
<g clip-path="url(#clip0_30_14936)">
<path d="M726.373 632.883C701.335 688.037 737.457 802.947 701.26 830.745C665.063 858.542 565.289 807.334 509.193 799.669C453.097 792.003 399.761 809.037 364.684 784.754C329.607 760.47 342.659 686.193 298.732 653.967C254.805 621.742 112.394 627.017 101.122 591.401C89.8496 555.785 211.366 492.92 231.097 440.273C250.829 387.625 203.092 328.488 219.512 275.517C235.931 222.547 281.322 135.131 329.613 122.448C377.905 109.765 445.586 194.187 509.261 199.418C572.937 204.649 664.573 131.664 711.665 153.832C758.757 176.001 768.508 274.764 791.812 332.429C815.116 390.094 862.397 449.748 851.49 499.824C840.584 549.899 751.412 577.73 726.373 632.883Z" fill="url(#paint0_linear_30_14936)"/>
</g>
<g clip-path="url(#clip1_30_14936)">
<path fill-rule="evenodd" clip-rule="evenodd" d="M526.523 394.628C501.461 390.835 478.075 408.073 474.282 433.135C470.489 458.196 487.728 481.583 512.789 485.376C537.851 489.168 561.237 471.93 565.03 446.868C568.823 421.807 551.584 398.42 526.523 394.628ZM508.211 515.625C466.452 509.305 437.711 470.331 444.033 428.557C450.355 386.783 489.341 358.059 531.101 364.378C572.86 370.698 601.601 409.672 595.279 451.446C588.957 493.221 549.97 521.945 508.211 515.625ZM547.123 258.506C446.892 243.337 353.329 312.303 338.16 412.534C326.674 488.43 443.678 738.095 473.877 742.495C503.557 747.157 689.822 542.336 701.152 467.469C716.32 367.238 647.354 273.675 547.123 258.506Z" fill="white"/>
</g>
<defs>
<linearGradient id="paint0_linear_30_14936" x1="100.385" y1="121.151" x2="301186" y2="121.15" gradientUnits="userSpaceOnUse">
<stop stop-color="#FF69B4"/>
<stop offset="1" stop-color="#FF1493"/>
</linearGradient>
<clipPath id="clip0_30_14936">
<rect width="754" height="718" fill="white" transform="translate(100 121)"/>
</clipPath>
<clipPath id="clip1_30_14936">
<rect width="435.74" height="536.433" fill="white" transform="translate(345.217 201.703) rotate(8.60571)"/>
</clipPath>
</defs>
</svg>
